<svg width="110" height="100" viewBox="0 0 110 100" fill="none" xmlns="http://www.w3.org/2000/svg">
<path d="M67.4417 47.377C67.8728 46.9559 68.1152 46.3853 68.1162 45.7904V29.4477C68.1152 28.8528 67.8728 28.2822 67.4417 27.8611C67.0105 27.4399 66.4258 27.2026 65.8154 27.2016H45.1846C44.5743 27.2026 43.9895 27.4399 43.5583 27.8611C43.1272 28.2822 42.8848 28.8527 42.8838 29.4476C42.8838 29.4477 42.8838 29.4477 42.8838 29.4477M67.4417 47.377L42.825 29.4476L42.8838 29.4477M67.4417 47.377C67.0105 47.7982 66.4258 48.0355 65.8154 48.0365H45.1846C44.5743 48.0355 43.9895 47.7982 43.5583 47.377C43.1272 46.9559 42.8848 46.3854 42.8838 45.7905M67.4417 47.377L42.8838 45.7905M42.8838 29.4477V45.7904M42.8838 29.4477V45.7904M42.8838 45.7904L42.8838 45.7905M42.8838 45.7904L42.8838 45.7905M65.8156 25.1793H65.8155H64.3338V18.5714C64.3338 16.2821 63.4027 14.0868 61.7459 12.4685C60.0892 10.8501 57.8424 9.94122 55.5 9.94122C53.1576 9.94122 50.9108 10.8501 49.2541 12.4685C47.5973 14.0868 46.6662 16.2821 46.6662 18.5714V25.1793H45.1845H45.1844C44.0267 25.1803 42.9164 25.63 42.0973 26.4301C41.2782 27.2302 40.8173 28.3154 40.8162 29.4476V29.4476L40.8162 45.7905L40.8162 45.7905C40.8173 46.9227 41.2782 48.0079 42.0973 48.808C42.9164 49.6081 44.0267 50.0578 45.1844 50.0588H65.8155C66.9733 50.0578 68.0836 49.6081 68.9027 48.808C69.7218 48.0079 70.1827 46.9227 70.1838 45.7905V29.4476V29.4476C70.1827 28.3154 69.7218 27.2302 68.9027 26.4301C68.0836 25.63 66.9733 25.1803 65.8156 25.1793ZM48.7338 18.5714C48.7338 16.8194 49.4463 15.1388 50.7151 13.8994C51.9839 12.6601 53.705 11.9635 55.5 11.9635C57.295 11.9635 59.0161 12.6601 60.2849 13.8994C61.5537 15.1388 62.2662 16.8194 62.2662 18.5714V25.1793H48.7338V18.5714Z" fill="#FFBF00" stroke="#FFBF00" stroke-width="0.117569"/>
<path d="M60.6011 33.0948L60.6011 33.0948C60.6973 33.0008 60.8114 32.9264 60.9368 32.8756C61.0623 32.8249 61.1967 32.7987 61.3325 32.7987C61.4682 32.7987 61.6026 32.8249 61.7281 32.8756C61.8536 32.9264 61.9677 33.0008 62.0639 33.0948C62.16 33.1887 62.2364 33.3003 62.2885 33.4232C62.3406 33.5462 62.3675 33.678 62.3675 33.8111C62.3675 33.9443 62.3406 34.0761 62.2885 34.199C62.2364 34.3219 62.16 34.4335 62.0639 34.5275L54.2639 42.1464L60.6011 33.0948ZM60.6011 33.0948L53.5325 40.0013L50.3639 36.9043L50.3639 36.9043M60.6011 33.0948L50.3639 36.9043M50.3639 36.9043C50.1697 36.7146 49.9065 36.6083 49.6325 36.6083M50.3639 36.9043L49.6325 36.6083M49.6325 36.6083C49.3584 36.6083 49.0953 36.7146 48.9011 36.9043M49.6325 36.6083L48.9011 36.9043M48.9011 36.9043C48.7069 37.094 48.5975 37.3517 48.5975 37.6206M48.9011 36.9043L48.5975 37.6206M48.5975 37.6206C48.5975 37.8896 48.7069 38.1472 48.9011 38.337M48.5975 37.6206L48.9011 38.337M48.9011 38.337L52.8011 42.1464L48.9011 38.337ZM53.1367 42.366C53.0112 42.3151 52.8972 42.2406 52.8011 42.1465L53.1367 42.366ZM53.1367 42.366C53.2622 42.4169 53.3967 42.443 53.5325 42.443M53.1367 42.366L53.5325 42.443M53.5325 42.443C53.6683 42.443 53.8028 42.4169 53.9282 42.366M53.5325 42.443L53.9282 42.366M53.9282 42.366C54.0537 42.3151 54.1678 42.2406 54.2639 42.1465L53.9282 42.366Z" fill="#FFBF00" stroke="#FFBF00" stroke-width="0.117569"/>
<path d="M34.8649 70V69.0455L37.818 65.9858C38.1333 65.6534 38.3933 65.3622 38.5978 65.1122C38.8052 64.8594 38.96 64.6193 39.0623 64.392C39.1646 64.1648 39.2157 63.9233 39.2157 63.6676C39.2157 63.3778 39.1475 63.1278 39.0112 62.9176C38.8748 62.7045 38.6887 62.5412 38.4529 62.4276C38.2172 62.3111 37.9515 62.2528 37.6561 62.2528C37.3436 62.2528 37.0708 62.3168 36.8379 62.4446C36.6049 62.5724 36.426 62.7528 36.301 62.9858C36.176 63.2187 36.1135 63.4915 36.1135 63.804H34.8564C34.8564 63.2727 34.9785 62.8082 35.2228 62.4105C35.4672 62.0128 35.8024 61.7045 36.2285 61.4858C36.6547 61.2642 37.139 61.1534 37.6816 61.1534C38.2299 61.1534 38.7129 61.2628 39.1305 61.4815C39.551 61.6974 39.8791 61.9929 40.1149 62.3679C40.3507 62.7401 40.4686 63.1605 40.4686 63.6293C40.4686 63.9531 40.4075 64.2699 40.2853 64.5795C40.166 64.8892 39.9572 65.2344 39.6589 65.6151C39.3606 65.9929 38.9458 66.4517 38.4146 66.9915L36.6802 68.8068V68.8707H40.6092V70H34.8649ZM45.1049 70.1193C44.5708 70.1193 44.0907 70.017 43.6646 69.8125C43.2413 69.6051 42.9032 69.321 42.6504 68.9602C42.3975 68.5994 42.2626 68.1875 42.2456 67.7244H43.524C43.5552 68.0994 43.7214 68.4077 44.0225 68.6491C44.3237 68.8906 44.6845 69.0114 45.1049 69.0114C45.4402 69.0114 45.737 68.9347 45.9956 68.7812C46.2569 68.625 46.4615 68.4105 46.6092 68.1378C46.7598 67.8651 46.835 67.554 46.835 67.2045C46.835 66.8494 46.7583 66.5327 46.6049 66.2543C46.4515 65.9759 46.2399 65.7571 45.97 65.598C45.7029 65.4389 45.3961 65.358 45.0495 65.3551C44.7853 65.3551 44.5197 65.4006 44.2527 65.4915C43.9856 65.5824 43.7697 65.7017 43.6049 65.8494L42.399 65.6705L42.889 61.2727H47.6873V62.402H43.9842L43.7072 64.8438H43.7583C43.9288 64.679 44.1547 64.5412 44.4359 64.4304C44.72 64.3196 45.024 64.2642 45.3478 64.2642C45.8791 64.2642 46.3521 64.3906 46.7669 64.6435C47.1845 64.8963 47.5126 65.2415 47.7512 65.679C47.9927 66.1136 48.112 66.6136 48.1092 67.179C48.112 67.7443 47.9842 68.2486 47.7257 68.6918C47.47 69.1349 47.1149 69.4844 46.6603 69.7401C46.2086 69.9929 45.6902 70.1193 45.1049 70.1193ZM52.7125 70.1193C52.3233 70.1136 51.9398 70.0426 51.562 69.9062C51.187 69.7699 50.8461 69.5426 50.5392 69.2244C50.2324 68.9062 49.9867 68.4787 49.802 67.9418C49.6202 67.4048 49.5293 66.7344 49.5293 65.9304C49.5293 65.169 49.6046 64.4929 49.7551 63.902C49.9086 63.3111 50.1287 62.8125 50.4157 62.4062C50.7026 61.9972 51.0492 61.6861 51.4554 61.473C51.8617 61.2599 52.3176 61.1534 52.8233 61.1534C53.3432 61.1534 53.8049 61.2557 54.2083 61.4602C54.6117 61.6648 54.9384 61.9474 55.1884 62.3082C55.4412 62.669 55.6017 63.0795 55.6699 63.5398H54.3702C54.2821 63.1761 54.1074 62.8793 53.8461 62.6491C53.5847 62.419 53.2438 62.304 52.8233 62.304C52.1841 62.304 51.6855 62.5824 51.3276 63.1392C50.9725 63.696 50.7935 64.4702 50.7907 65.4616H50.8546C51.0051 65.2145 51.1898 65.0043 51.4086 64.831C51.6301 64.6548 51.8773 64.5199 52.15 64.4261C52.4256 64.3295 52.7154 64.2812 53.0194 64.2812C53.525 64.2812 53.9824 64.4048 54.3915 64.652C54.8034 64.8963 55.1316 65.2344 55.3759 65.6662C55.6202 66.098 55.7424 66.5923 55.7424 67.1491C55.7424 67.706 55.6159 68.2102 55.3631 68.6619C55.1131 69.1136 54.7608 69.4716 54.3063 69.7358C53.8517 69.9972 53.3205 70.125 52.7125 70.1193ZM52.7083 69.0114C53.0435 69.0114 53.3432 68.929 53.6074 68.7642C53.8716 68.5994 54.0804 68.3778 54.2338 68.0994C54.3873 67.821 54.464 67.5099 54.464 67.1662C54.464 66.831 54.3887 66.5256 54.2381 66.25C54.0904 65.9744 53.8858 65.7557 53.6245 65.5938C53.3659 65.4318 53.0705 65.3509 52.7381 65.3509C52.4853 65.3509 52.2509 65.3991 52.035 65.4957C51.8219 65.5923 51.6344 65.7259 51.4725 65.8963C51.3105 66.0668 51.1827 66.2628 51.089 66.4844C50.998 66.7031 50.9526 66.9347 50.9526 67.179C50.9526 67.5057 51.0279 67.8082 51.1784 68.0866C51.3319 68.3651 51.5407 68.5895 51.8049 68.7599C52.0719 68.9276 52.373 69.0114 52.7083 69.0114ZM61.1681 65.7599V66.8636H57.2988V65.7599H61.1681ZM62.9686 70V61.2727H64.2427V64.5156H64.3194C64.3933 64.3793 64.4998 64.2216 64.639 64.0426C64.7782 63.8636 64.9714 63.7074 65.2186 63.5739C65.4657 63.4375 65.7924 63.3693 66.1987 63.3693C66.7271 63.3693 67.1987 63.5028 67.6135 63.7699C68.0282 64.0369 68.3535 64.4219 68.5893 64.9247C68.8279 65.4276 68.9473 66.0327 68.9473 66.7401C68.9473 67.4474 68.8294 68.054 68.5936 68.5597C68.3578 69.0625 68.0339 69.4503 67.622 69.723C67.21 69.9929 66.7399 70.1278 66.2115 70.1278C65.8137 70.1278 65.4885 70.0611 65.2356 69.9276C64.9856 69.794 64.7896 69.6378 64.6475 69.4588C64.5055 69.2798 64.3961 69.1207 64.3194 68.9815H64.2129V70H62.9686ZM64.2172 66.7273C64.2172 67.1875 64.2839 67.5909 64.4174 67.9375C64.551 68.2841 64.7441 68.5554 64.997 68.7514C65.2498 68.9446 65.5595 69.0412 65.926 69.0412C66.3066 69.0412 66.6248 68.9403 66.8805 68.7386C67.1362 68.5341 67.3294 68.2571 67.46 67.9077C67.5936 67.5582 67.6603 67.1648 67.6603 66.7273C67.6603 66.2955 67.595 65.9077 67.4643 65.5639C67.3365 65.2202 67.1433 64.9489 66.8848 64.75C66.6291 64.5511 66.3095 64.4517 65.926 64.4517C65.5566 64.4517 65.2441 64.5469 64.9885 64.7372C64.7356 64.9276 64.5439 65.1932 64.4132 65.5341C64.2825 65.875 64.2172 66.2727 64.2172 66.7273ZM70.378 70V63.4545H71.6522V70H70.378ZM71.0215 62.4446C70.7999 62.4446 70.6096 62.3707 70.4505 62.223C70.2942 62.0724 70.2161 61.8935 70.2161 61.6861C70.2161 61.4759 70.2942 61.2969 70.4505 61.1491C70.6096 60.9986 70.7999 60.9233 71.0215 60.9233C71.2431 60.9233 71.432 60.9986 71.5882 61.1491C71.7473 61.2969 71.8269 61.4759 71.8269 61.6861C71.8269 61.8935 71.7473 62.0724 71.5882 62.223C71.432 62.3707 71.2431 62.4446 71.0215 62.4446ZM76.4217 63.4545V64.4773H72.8464V63.4545H76.4217ZM73.8052 61.8864H75.0794V68.0781C75.0794 68.3253 75.1163 68.5114 75.1902 68.6364C75.264 68.7585 75.3592 68.8423 75.4757 68.8878C75.595 68.9304 75.7243 68.9517 75.8635 68.9517C75.9657 68.9517 76.0552 68.9446 76.1319 68.9304C76.2086 68.9162 76.2683 68.9048 76.3109 68.8963L76.541 69.9489C76.4672 69.9773 76.362 70.0057 76.2257 70.0341C76.0893 70.0653 75.9189 70.0824 75.7143 70.0852C75.3791 70.0909 75.0666 70.0312 74.7768 69.9062C74.487 69.7812 74.2527 69.5881 74.0737 69.3267C73.8947 69.0653 73.8052 68.7372 73.8052 68.3423V61.8864ZM12.8933 86H11.4956L14.6362 77.2727H16.1575L19.2981 86H17.9004L15.4331 78.858H15.3649L12.8933 86ZM13.1277 82.5824H17.6618V83.6903H13.1277V82.5824ZM20.5584 86V77.2727H26.03V78.4062H21.8752V81.0653H25.7445V82.1946H21.8752V84.8665H26.0811V86H20.5584ZM32.5488 79.5653C32.5034 79.1619 32.3159 78.8494 31.9863 78.6278C31.6568 78.4034 31.242 78.2912 30.742 78.2912C30.3841 78.2912 30.0744 78.348 29.813 78.4616C29.5517 78.5724 29.3485 78.7259 29.2037 78.9219C29.0616 79.1151 28.9906 79.3352 28.9906 79.5824C28.9906 79.7898 29.0389 79.9687 29.1355 80.1193C29.2349 80.2699 29.3642 80.3963 29.5233 80.4986C29.6852 80.598 29.8585 80.6818 30.0431 80.75C30.2278 80.8153 30.4054 80.8693 30.5758 80.9119L31.4281 81.1335C31.7065 81.2017 31.992 81.294 32.2846 81.4105C32.5772 81.527 32.8485 81.6804 33.0985 81.8707C33.3485 82.0611 33.5502 82.2969 33.7037 82.5781C33.8599 82.8594 33.938 83.196 33.938 83.5881C33.938 84.0824 33.8102 84.5213 33.5545 84.9048C33.3017 85.2884 32.9338 85.5909 32.4508 85.8125C31.9707 86.0341 31.3897 86.1449 30.7079 86.1449C30.0545 86.1449 29.4892 86.0412 29.0119 85.8338C28.5346 85.6264 28.161 85.3324 27.8912 84.9517C27.6213 84.5682 27.4721 84.1136 27.4437 83.5881H28.7647C28.7903 83.9034 28.8926 84.1662 29.0716 84.3764C29.2534 84.5838 29.4849 84.7386 29.7662 84.8409C30.0502 84.9403 30.3613 84.9901 30.6994 84.9901C31.0716 84.9901 31.4025 84.9318 31.6923 84.8153C31.9849 84.696 32.215 84.5312 32.3826 84.321C32.5502 84.108 32.6341 83.8594 32.6341 83.5753C32.6341 83.3168 32.5602 83.1051 32.4125 82.9403C32.2676 82.7756 32.0701 82.6392 31.8201 82.5312C31.573 82.4233 31.2931 82.3281 30.9806 82.2457L29.9494 81.9645C29.2505 81.7741 28.6966 81.4943 28.2875 81.125C27.8812 80.7557 27.6781 80.267 27.6781 79.6591C27.6781 79.1562 27.8145 78.7173 28.0872 78.3423C28.3599 77.9673 28.7292 77.6761 29.1951 77.4688C29.661 77.2585 30.1866 77.1534 30.7718 77.1534C31.3627 77.1534 31.8841 77.2571 32.3358 77.4645C32.7903 77.6719 33.1483 77.9574 33.4096 78.321C33.671 78.6818 33.8074 79.0966 33.8187 79.5653H32.5488ZM38.6873 86V77.2727H44.1589V78.4062H40.0041V81.0653H43.8734V82.1946H40.0041V84.8665H44.2101V86H38.6873ZM47.0897 82.1136V86H45.8155V79.4545H47.0385V80.5199H47.1195C47.2701 80.1733 47.5059 79.8949 47.8269 79.6847C48.1507 79.4744 48.5584 79.3693 49.0499 79.3693C49.4959 79.3693 49.8865 79.4631 50.2218 79.6506C50.557 79.8352 50.8169 80.1108 51.0016 80.4773C51.1863 80.8437 51.2786 81.2969 51.2786 81.8366V86H50.0044V81.9901C50.0044 81.5156 49.8809 81.1449 49.6337 80.8778C49.3865 80.608 49.0471 80.473 48.6152 80.473C48.3198 80.473 48.057 80.5369 47.8269 80.6648C47.5996 80.7926 47.4192 80.9801 47.2857 81.2273C47.155 81.4716 47.0897 81.767 47.0897 82.1136ZM55.7445 86.1321C55.111 86.1321 54.5655 85.9886 54.1081 85.7017C53.6536 85.4119 53.3042 85.0128 53.0598 84.5043C52.8155 83.9957 52.6934 83.4134 52.6934 82.7571C52.6934 82.0923 52.8184 81.5057 53.0684 80.9972C53.3184 80.4858 53.6706 80.0866 54.1252 79.7997C54.5797 79.5128 55.1152 79.3693 55.7317 79.3693C56.2289 79.3693 56.6721 79.4616 57.0613 79.6463C57.4505 79.8281 57.7644 80.0838 58.003 80.4134C58.2445 80.7429 58.388 81.1278 58.4334 81.5682H57.1934C57.1252 81.2614 56.9689 80.9972 56.7246 80.7756C56.4831 80.554 56.1593 80.4432 55.753 80.4432C55.3979 80.4432 55.0868 80.5369 54.8198 80.7244C54.5556 80.9091 54.3496 81.1733 54.2019 81.517C54.0542 81.858 53.9803 82.2614 53.9803 82.7273C53.9803 83.2045 54.0527 83.6165 54.1976 83.9631C54.3425 84.3097 54.5471 84.5781 54.8113 84.7685C55.0783 84.9588 55.3922 85.054 55.753 85.054C55.9945 85.054 56.2132 85.0099 56.4093 84.9219C56.6081 84.831 56.7743 84.7017 56.9078 84.5341C57.0442 84.3665 57.1394 84.1648 57.1934 83.929H58.4334C58.388 84.3523 58.2502 84.7301 58.0201 85.0625C57.79 85.3949 57.4817 85.6562 57.0953 85.8466C56.7118 86.0369 56.2615 86.1321 55.7445 86.1321ZM59.796 86V79.4545H61.0275V80.4943H61.0957C61.215 80.142 61.4252 79.8651 61.7264 79.6634C62.0304 79.4588 62.3741 79.3565 62.7576 79.3565C62.8372 79.3565 62.9309 79.3594 63.0389 79.3651C63.1497 79.3707 63.2363 79.3778 63.2988 79.3864V80.6051C63.2477 80.5909 63.1568 80.5753 63.0261 80.5582C62.8954 80.5384 62.7647 80.5284 62.6341 80.5284C62.3329 80.5284 62.0645 80.5923 61.8287 80.7202C61.5957 80.8452 61.411 81.0199 61.2747 81.2443C61.1383 81.4659 61.0701 81.7187 61.0701 82.0028V86H59.796ZM65.4061 88.4545C65.2157 88.4545 65.0424 88.4389 64.8862 88.4077C64.7299 88.3793 64.6135 88.348 64.5368 88.3139L64.8436 87.2699C65.0765 87.3324 65.2839 87.3594 65.4657 87.3509C65.6475 87.3423 65.8081 87.2741 65.9473 87.1463C66.0893 87.0185 66.2143 86.8097 66.3223 86.5199L66.4799 86.0852L64.085 79.4545H65.4487L67.1064 84.5341H67.1745L68.8322 79.4545H70.2001L67.5027 86.8736C67.3777 87.2145 67.2186 87.5028 67.0254 87.7386C66.8322 87.9773 66.6021 88.1563 66.335 88.2756C66.068 88.3949 65.7583 88.4545 65.4061 88.4545ZM71.3975 88.4545V79.4545H72.6419V80.5156H72.7484C72.8223 80.3793 72.9288 80.2216 73.068 80.0426C73.2072 79.8636 73.4004 79.7074 73.6475 79.5739C73.8947 79.4375 74.2214 79.3693 74.6277 79.3693C75.1561 79.3693 75.6277 79.5028 76.0424 79.7699C76.4572 80.0369 76.7825 80.4219 77.0183 80.9247C77.2569 81.4276 77.3762 82.0327 77.3762 82.7401C77.3762 83.4474 77.2583 84.054 77.0226 84.5597C76.7868 85.0625 76.4629 85.4503 76.051 85.723C75.639 85.9929 75.1689 86.1278 74.6404 86.1278C74.2427 86.1278 73.9174 86.0611 73.6646 85.9276C73.4146 85.794 73.2186 85.6378 73.0765 85.4588C72.9345 85.2798 72.8251 85.1207 72.7484 84.9815H72.6717V88.4545H71.3975ZM72.6461 82.7273C72.6461 83.1875 72.7129 83.5909 72.8464 83.9375C72.9799 84.2841 73.1731 84.5554 73.426 84.7514C73.6788 84.9446 73.9885 85.0412 74.3549 85.0412C74.7356 85.0412 75.0538 84.9403 75.3095 84.7386C75.5652 84.5341 75.7583 84.2571 75.889 83.9077C76.0225 83.5582 76.0893 83.1648 76.0893 82.7273C76.0893 82.2955 76.024 81.9077 75.8933 81.5639C75.7654 81.2202 75.5723 80.9489 75.3137 80.75C75.0581 80.5511 74.7385 80.4517 74.3549 80.4517C73.9856 80.4517 73.6731 80.5469 73.4174 80.7372C73.1646 80.9276 72.9728 81.1932 72.8422 81.5341C72.7115 81.875 72.6461 82.2727 72.6461 82.7273ZM81.8592 79.4545V80.4773H78.2839V79.4545H81.8592ZM79.2427 77.8864H80.5169V84.0781C80.5169 84.3253 80.5538 84.5114 80.6277 84.6364C80.7015 84.7585 80.7967 84.8423 80.9132 84.8878C81.0325 84.9304 81.1618 84.9517 81.301 84.9517C81.4032 84.9517 81.4927 84.9446 81.5694 84.9304C81.6461 84.9162 81.7058 84.9048 81.7484 84.8963L81.9785 85.9489C81.9047 85.9773 81.7995 86.0057 81.6632 86.0341C81.5268 86.0653 81.3564 86.0824 81.1518 86.0852C80.8166 86.0909 80.5041 86.0312 80.2143 85.9062C79.9245 85.7812 79.6902 85.5881 79.5112 85.3267C79.3322 85.0653 79.2427 84.7372 79.2427 84.3423V77.8864ZM83.2686 86V79.4545H84.5428V86H83.2686ZM83.9121 78.4446C83.6905 78.4446 83.5002 78.3707 83.3411 78.223C83.1848 78.0724 83.1067 77.8935 83.1067 77.6861C83.1067 77.4759 83.1848 77.2969 83.3411 77.1491C83.5002 76.9986 83.6905 76.9233 83.9121 76.9233C84.1337 76.9233 84.3226 76.9986 84.4789 77.1491C84.638 77.2969 84.7175 77.4759 84.7175 77.6861C84.7175 77.8935 84.638 78.0724 84.4789 78.223C84.3226 78.3707 84.1337 78.4446 83.9121 78.4446ZM89.014 86.1321C88.4004 86.1321 87.8649 85.9915 87.4075 85.7102C86.9501 85.429 86.595 85.0355 86.3422 84.5298C86.0893 84.0241 85.9629 83.4332 85.9629 82.7571C85.9629 82.0781 86.0893 81.4844 86.3422 80.9759C86.595 80.4673 86.9501 80.0724 87.4075 79.7912C87.8649 79.5099 88.4004 79.3693 89.014 79.3693C89.6277 79.3693 90.1632 79.5099 90.6206 79.7912C91.0779 80.0724 91.4331 80.4673 91.6859 80.9759C91.9387 81.4844 92.0652 82.0781 92.0652 82.7571C92.0652 83.4332 91.9387 84.0241 91.6859 84.5298C91.4331 85.0355 91.0779 85.429 90.6206 85.7102C90.1632 85.9915 89.6277 86.1321 89.014 86.1321ZM89.0183 85.0625C89.416 85.0625 89.7456 84.9574 90.0069 84.7472C90.2683 84.5369 90.4615 84.2571 90.5865 83.9077C90.7143 83.5582 90.7782 83.1733 90.7782 82.7528C90.7782 82.3352 90.7143 81.9517 90.5865 81.6023C90.4615 81.25 90.2683 80.9673 90.0069 80.7543C89.7456 80.5412 89.416 80.4347 89.0183 80.4347C88.6177 80.4347 88.2853 80.5412 88.0211 80.7543C87.7598 80.9673 87.5652 81.25 87.4373 81.6023C87.3123 81.9517 87.2498 82.3352 87.2498 82.7528C87.2498 83.1733 87.3123 83.5582 87.4373 83.9077C87.5652 84.2571 87.7598 84.5369 88.0211 84.7472C88.2853 84.9574 88.6177 85.0625 89.0183 85.0625ZM94.7615 82.1136V86H93.4874V79.4545H94.7104V80.5199H94.7914C94.9419 80.1733 95.1777 79.8949 95.4988 79.6847C95.8226 79.4744 96.2303 79.3693 96.7218 79.3693C97.1678 79.3693 97.5584 79.4631 97.8936 79.6506C98.2289 79.8352 98.4888 80.1108 98.6735 80.4773C98.8581 80.8437 98.9505 81.2969 98.9505 81.8366V86H97.6763V81.9901C97.6763 81.5156 97.5527 81.1449 97.3056 80.8778C97.0584 80.608 96.7189 80.473 96.2871 80.473C95.9917 80.473 95.7289 80.5369 95.4988 80.6648C95.2715 80.7926 95.0911 80.9801 94.9576 81.2273C94.8269 81.4716 94.7615 81.767 94.7615 82.1136Z" fill="#D7D7D7"/>
</svg>
